<svg width="8490" height="2502" viewBox="0 0 8490 2502" fill="none" xmlns="http://www.w3.org/2000/svg">
<mask id="path-1-outside-1_2636_285" maskUnits="userSpaceOnUse" x="2465" y="524" width="5756" height="1437" fill="black">
<rect fill="white" x="2465" y="524" width="5756" height="1437"/>
<path d="M3110 1960C2672 1960 2466 1664 2466 1260C2466 858 2680 560 3140 560C3536 560 3738 740 3774 1072H3602C3570 816 3428 698 3134 698C2798 698 2640 884 2640 1260C2640 1630 2790 1822 3134 1822C3446 1822 3574 1642 3610 1394H3012V1270H3772V1924H3622V1600C3564 1794 3414 1960 3110 1960ZM4465.63 1958C4121.63 1958 3969.63 1726 3969.63 1424C3969.63 1126 4133.63 894 4465.63 894C4765.63 894 4935.63 1100 4935.63 1392C4935.63 1418 4935.63 1438 4931.63 1462H4127.63C4139.63 1736 4271.63 1836 4471.63 1836C4667.63 1836 4757.63 1744 4787.63 1618H4933.63C4913.63 1770 4797.63 1958 4465.63 1958ZM4131.63 1342H4779.63C4771.63 1112 4653.63 1016 4467.63 1016C4277.63 1016 4153.63 1106 4131.63 1342ZM5077.05 1426C5077.05 1120 5253.05 894 5577.05 894C5877.05 894 6027.05 1060 6043.05 1292H5893.05C5869.05 1128 5769.05 1024 5583.05 1024C5371.05 1024 5239.05 1138 5239.05 1426C5239.05 1716 5367.05 1828 5577.05 1828C5779.05 1828 5883.05 1714 5903.05 1544H6055.05C6043.05 1774 5881.05 1958 5577.05 1958C5249.05 1958 5077.05 1732 5077.05 1426ZM6994.61 1926L6616.61 1444L6412.61 1640V1926H6252.61V526H6412.61V1460C6442.61 1424 6474.61 1388 6506.61 1358L6958.61 926H7154.61V930L6718.61 1348L7198.61 1926H6994.61ZM7717.77 1958C7379.77 1958 7213.77 1726 7213.77 1424C7213.77 1126 7379.77 894 7717.77 894C8053.77 894 8219.77 1128 8219.77 1424C8219.77 1724 8053.77 1958 7717.77 1958ZM7375.77 1426C7375.77 1706 7491.77 1828 7717.77 1828C7943.77 1828 8057.77 1706 8057.77 1426C8057.77 1144 7943.77 1024 7717.77 1024C7491.77 1024 7375.77 1144 7375.77 1426Z"/>
</mask>
<path d="M3110 1960C2672 1960 2466 1664 2466 1260C2466 858 2680 560 3140 560C3536 560 3738 740 3774 1072H3602C3570 816 3428 698 3134 698C2798 698 2640 884 2640 1260C2640 1630 2790 1822 3134 1822C3446 1822 3574 1642 3610 1394H3012V1270H3772V1924H3622V1600C3564 1794 3414 1960 3110 1960ZM4465.63 1958C4121.63 1958 3969.63 1726 3969.63 1424C3969.63 1126 4133.63 894 4465.63 894C4765.63 894 4935.63 1100 4935.63 1392C4935.63 1418 4935.63 1438 4931.63 1462H4127.63C4139.63 1736 4271.63 1836 4471.63 1836C4667.63 1836 4757.63 1744 4787.63 1618H4933.63C4913.63 1770 4797.63 1958 4465.63 1958ZM4131.63 1342H4779.63C4771.63 1112 4653.63 1016 4467.63 1016C4277.63 1016 4153.63 1106 4131.63 1342ZM5077.05 1426C5077.05 1120 5253.05 894 5577.05 894C5877.05 894 6027.05 1060 6043.05 1292H5893.05C5869.05 1128 5769.05 1024 5583.05 1024C5371.05 1024 5239.05 1138 5239.05 1426C5239.05 1716 5367.05 1828 5577.05 1828C5779.05 1828 5883.05 1714 5903.05 1544H6055.05C6043.05 1774 5881.05 1958 5577.05 1958C5249.05 1958 5077.05 1732 5077.05 1426ZM6994.61 1926L6616.61 1444L6412.61 1640V1926H6252.61V526H6412.61V1460C6442.61 1424 6474.61 1388 6506.61 1358L6958.61 926H7154.61V930L6718.61 1348L7198.61 1926H6994.61ZM7717.77 1958C7379.77 1958 7213.77 1726 7213.77 1424C7213.77 1126 7379.77 894 7717.77 894C8053.77 894 8219.77 1128 8219.77 1424C8219.77 1724 8053.77 1958 7717.77 1958ZM7375.77 1426C7375.77 1706 7491.77 1828 7717.77 1828C7943.77 1828 8057.77 1706 8057.77 1426C8057.77 1144 7943.77 1024 7717.77 1024C7491.77 1024 7375.77 1144 7375.77 1426Z" fill="white"/>
<path d="M3774 1072V1073H3775.11L3774.99 1071.89L3774 1072ZM3602 1072L3601.01 1072.12L3601.12 1073H3602V1072ZM3610 1394L3610.99 1394.14L3611.16 1393H3610V1394ZM3012 1394H3011V1395H3012V1394ZM3012 1270V1269H3011V1270H3012ZM3772 1270H3773V1269H3772V1270ZM3772 1924V1925H3773V1924H3772ZM3622 1924H3621V1925H3622V1924ZM3622 1600H3623L3621.04 1599.71L3622 1600ZM3110 1960V1959C2891.24 1959 2730.54 1885.09 2624.51 1760.85C2518.46 1636.59 2467 1461.84 2467 1260H2466H2465C2465 1462.16 2516.54 1637.41 2622.99 1762.15C2729.46 1886.91 2890.76 1961 3110 1961V1960ZM2466 1260H2467C2467 1059.17 2520.46 884.43 2631.25 759.915C2742.02 635.418 2910.23 561 3140 561V560V559C2909.77 559 2740.98 633.582 2629.75 758.585C2518.54 883.569 2465 1058.83 2465 1260H2466ZM3140 560V561C3337.86 561 3487.1 605.969 3591.36 692.27C3695.61 778.561 3755.03 906.29 3773.01 1072.11L3774 1072L3774.99 1071.89C3756.97 905.71 3697.39 777.439 3592.64 690.73C3487.9 604.031 3338.14 559 3140 559V560ZM3774 1072V1071H3602V1072V1073H3774V1072ZM3602 1072L3602.99 1071.88C3586.97 943.717 3543.4 849.937 3466.88 788.222C3390.38 726.52 3281.12 697 3134 697V698V699C3280.89 699 3389.62 728.48 3465.62 789.778C3541.6 851.063 3585.03 944.283 3601.01 1072.12L3602 1072ZM3134 698V697C2965.82 697 2842 743.556 2760.25 837.343C2678.52 931.102 2639 1071.89 2639 1260H2640H2641C2641 1072.11 2680.48 931.898 2761.75 838.657C2843 745.444 2966.18 699 3134 699V698ZM2640 1260H2639C2639 1445.11 2676.52 1585.89 2757.24 1680.4C2837.99 1774.94 2961.81 1823 3134 1823V1822V1821C2962.19 1821 2839.01 1773.06 2758.76 1679.1C2678.48 1585.11 2641 1444.89 2641 1260H2640ZM3134 1822V1823C3290.2 1823 3400.48 1777.93 3476.21 1701.7C3551.92 1625.5 3592.97 1518.26 3610.99 1394.14L3610 1394L3609.01 1393.86C3591.03 1517.74 3550.08 1624.5 3474.79 1700.3C3399.52 1776.07 3289.8 1821 3134 1821V1822ZM3610 1394V1393H3012V1394V1395H3610V1394ZM3012 1394H3013V1270H3012H3011V1394H3012ZM3012 1270V1271H3772V1270V1269H3012V1270ZM3772 1270H3771V1924H3772H3773V1270H3772ZM3772 1924V1923H3622V1924V1925H3772V1924ZM3622 1924H3623V1600H3622H3621V1924H3622ZM3622 1600L3621.04 1599.71C3592.09 1696.56 3540.18 1786.37 3457.63 1851.97C3375.08 1917.56 3261.81 1959 3110 1959V1960V1961C3262.19 1961 3375.92 1919.44 3458.87 1853.53C3541.82 1787.63 3593.91 1697.44 3622.96 1600.29L3622 1600ZM4931.62 1462V1463H4932.47L4932.61 1462.16L4931.62 1462ZM4127.62 1462V1461H4126.58L4126.63 1462.04L4127.62 1462ZM4787.62 1618V1617H4786.84L4786.65 1617.77L4787.62 1618ZM4933.62 1618L4934.62 1618.13L4934.77 1617H4933.62V1618ZM4131.62 1342L4130.63 1341.91L4130.53 1343H4131.62V1342ZM4779.62 1342V1343H4780.66L4780.62 1341.97L4779.62 1342ZM4465.62 1958V1957C4293.87 1957 4170.17 1899.09 4089.39 1803.6C4008.59 1708.09 3970.62 1574.85 3970.62 1424H3969.62H3968.62C3968.62 1575.15 4006.66 1708.91 4087.86 1804.9C4169.08 1900.91 4293.38 1959 4465.62 1959V1958ZM3969.62 1424H3970.62C3970.62 1275.17 4011.58 1142.93 4093.88 1047.9C4176.17 952.902 4299.88 895 4465.62 895V894V893C4299.37 893 4175.08 951.098 4092.37 1046.6C4009.67 1142.07 3968.62 1274.83 3968.62 1424H3969.62ZM4465.62 894V895C4615.38 895 4732.6 946.409 4812.39 1034.17C4892.18 1121.95 4934.62 1246.19 4934.62 1392H4935.62H4936.62C4936.62 1245.81 4894.07 1121.05 4813.86 1032.83C4733.65 944.591 4615.87 893 4465.62 893V894ZM4935.62 1392H4934.62C4934.62 1418.01 4934.62 1437.93 4930.64 1461.84L4931.62 1462L4932.61 1462.16C4936.63 1438.07 4936.62 1417.99 4936.62 1392H4935.62ZM4931.62 1462V1461H4127.62V1462V1463H4931.62V1462ZM4127.62 1462L4126.63 1462.04C4132.63 1599.18 4168.68 1692.97 4228.42 1752.46C4288.17 1811.96 4371.47 1837 4471.62 1837V1836V1835C4371.78 1835 4289.08 1810.04 4229.83 1751.04C4170.57 1692.03 4134.62 1598.82 4128.62 1461.96L4127.62 1462ZM4471.62 1836V1837C4569.78 1837 4641.51 1813.96 4692.48 1775.04C4743.46 1736.12 4773.56 1681.4 4788.6 1618.23L4787.62 1618L4786.65 1617.77C4771.69 1680.6 4741.79 1734.88 4691.27 1773.46C4640.74 1812.04 4569.47 1835 4471.62 1835V1836ZM4787.62 1618V1619H4933.62V1618V1617H4787.62V1618ZM4933.62 1618L4932.63 1617.87C4922.66 1693.68 4888.75 1778.45 4815.95 1844.26C4743.17 1910.06 4631.43 1957 4465.62 1957V1958V1959C4631.82 1959 4744.08 1911.94 4817.3 1845.74C4890.5 1779.55 4924.59 1694.32 4934.62 1618.13L4933.62 1618ZM4131.62 1342V1343H4779.62V1342V1341H4131.62V1342ZM4779.62 1342L4780.62 1341.97C4776.62 1226.81 4745.07 1145.03 4691.08 1092.04C4637.08 1039.04 4560.79 1015 4467.62 1015V1016V1017C4560.46 1017 4636.17 1040.96 4689.67 1093.46C4743.18 1145.97 4774.63 1227.19 4778.63 1342.03L4779.62 1342ZM4467.62 1016V1015C4372.48 1015 4293.7 1037.54 4235.95 1089.76C4178.21 1141.98 4141.64 1223.75 4130.63 1341.91L4131.62 1342L4132.62 1342.09C4143.61 1224.25 4180.04 1143.02 4237.3 1091.24C4294.55 1039.46 4372.77 1017 4467.62 1017V1016ZM6043.05 1292V1293H6044.12L6044.04 1291.93L6043.05 1292ZM5893.05 1292L5892.06 1292.14L5892.18 1293H5893.05V1292ZM5903.05 1544V1543H5902.16L5902.05 1543.88L5903.05 1544ZM6055.05 1544L6056.05 1544.05L6056.1 1543H6055.05V1544ZM5077.05 1426H5078.05C5078.05 1273.19 5121.99 1140.44 5206.29 1045.92C5290.58 951.405 5415.29 895 5577.05 895V894V893C5414.8 893 5289.51 949.595 5204.8 1044.58C5120.1 1139.56 5076.05 1272.81 5076.05 1426H5077.05ZM5577.05 894V895C5726.86 895 5839.1 936.446 5915.87 1006.74C5992.64 1077.03 6034.06 1176.27 6042.05 1292.07L6043.05 1292L6044.04 1291.93C6036.03 1175.73 5994.45 1075.97 5917.22 1005.26C5839.99 934.554 5727.23 893 5577.05 893V894ZM6043.05 1292V1291H5893.05V1292V1293H6043.05V1292ZM5893.05 1292L5894.04 1291.86C5882.01 1209.69 5850.93 1142.45 5799.47 1095.76C5748 1049.06 5676.24 1023 5583.05 1023V1024V1025C5675.86 1025 5747.1 1050.94 5798.12 1097.24C5849.16 1143.55 5880.08 1210.31 5892.06 1292.14L5893.05 1292ZM5583.05 1024V1023C5476.87 1023 5390.56 1051.55 5330.81 1116.32C5271.08 1181.08 5238.05 1281.87 5238.05 1426H5239.05H5240.05C5240.05 1282.13 5273.02 1181.92 5332.28 1117.68C5391.53 1053.45 5477.22 1025 5583.05 1025V1024ZM5239.05 1426H5238.05C5238.05 1571.12 5270.07 1671.91 5328.56 1736.42C5387.06 1800.95 5471.87 1829 5577.05 1829V1828V1827C5472.22 1827 5388.04 1799.05 5330.04 1735.08C5272.02 1671.09 5240.05 1570.88 5240.05 1426H5239.05ZM5577.05 1828V1829C5678.24 1829 5755 1800.44 5808.98 1750.48C5862.94 1700.53 5894.02 1629.29 5904.04 1544.12L5903.05 1544L5902.05 1543.88C5892.07 1628.71 5861.15 1699.47 5807.62 1749.02C5754.09 1798.56 5677.85 1827 5577.05 1827V1828ZM5903.05 1544V1545H6055.05V1544V1543H5903.05V1544ZM6055.05 1544L6054.05 1543.95C6048.06 1658.73 6004.65 1761.97 5924.86 1836.52C5845.08 1911.07 5728.84 1957 5577.05 1957V1958V1959C5729.25 1959 5846.01 1912.93 5926.23 1837.98C6006.44 1763.03 6050.03 1659.27 6056.05 1544.05L6055.05 1544ZM5577.05 1958V1957C5413.29 1957 5288.58 1900.59 5204.8 1806.09C5121 1711.56 5078.05 1578.82 5078.05 1426H5077.05H5076.05C5076.05 1579.18 5119.1 1712.44 5203.3 1807.41C5287.51 1902.41 5412.8 1959 5577.05 1959V1958ZM6994.61 1926L6993.82 1926.62L6994.12 1927H6994.61V1926ZM6616.61 1444L6617.4 1443.38L6616.71 1442.51L6615.92 1443.28L6616.61 1444ZM6412.61 1640L6411.92 1639.28L6411.61 1639.57V1640H6412.61ZM6412.61 1926V1927H6413.61V1926H6412.61ZM6252.61 1926H6251.61V1927H6252.61V1926ZM6252.61 526V525H6251.61V526H6252.61ZM6412.61 526H6413.61V525H6412.61V526ZM6412.61 1460H6411.61V1462.76L6413.38 1460.64L6412.61 1460ZM6506.61 1358L6507.29 1358.73L6507.3 1358.72L6506.61 1358ZM6958.61 926V925H6958.21L6957.92 925.277L6958.61 926ZM7154.61 926H7155.61V925H7154.61V926ZM7154.61 930L7155.3 930.722L7155.61 930.427V930H7154.61ZM6718.61 1348L6717.92 1347.28L6717.25 1347.92L6717.84 1348.64L6718.61 1348ZM7198.61 1926V1927H7200.74L7199.38 1925.36L7198.61 1926ZM6994.61 1926L6995.4 1925.38L6617.4 1443.38L6616.61 1444L6615.82 1444.62L6993.82 1926.62L6994.61 1926ZM6616.61 1444L6615.92 1443.28L6411.92 1639.28L6412.61 1640L6413.3 1640.72L6617.3 1444.72L6616.61 1444ZM6412.61 1640H6411.61V1926H6412.61H6413.61V1640H6412.61ZM6412.61 1926V1925H6252.61V1926V1927H6412.61V1926ZM6252.61 1926H6253.61V526H6252.61H6251.61V1926H6252.61ZM6252.61 526V527H6412.61V526V525H6252.61V526ZM6412.61 526H6411.61V1460H6412.61H6413.61V526H6412.61ZM6412.61 1460L6413.38 1460.64C6443.37 1424.65 6475.34 1388.69 6507.29 1358.73L6506.61 1358L6505.93 1357.27C6473.88 1387.31 6441.85 1423.35 6411.84 1459.36L6412.61 1460ZM6506.61 1358L6507.3 1358.72L6959.3 926.723L6958.61 926L6957.92 925.277L6505.92 1357.28L6506.61 1358ZM6958.61 926V927H7154.61V926V925H6958.61V926ZM7154.61 926H7153.61V930H7154.61H7155.61V926H7154.61ZM7154.61 930L7153.92 929.278L6717.92 1347.28L6718.61 1348L6719.3 1348.72L7155.3 930.722L7154.61 930ZM6718.61 1348L6717.84 1348.64L7197.84 1926.64L7198.61 1926L7199.38 1925.36L6719.38 1347.36L6718.61 1348ZM7198.61 1926V1925H6994.61V1926V1927H7198.61V1926ZM7717.77 1958V1957C7549.01 1957 7423.3 1899.09 7339.77 1803.59C7256.22 1708.07 7214.77 1574.83 7214.77 1424H7213.77H7212.77C7212.77 1575.17 7254.31 1708.93 7338.26 1804.91C7422.23 1900.91 7548.52 1959 7717.77 1959V1958ZM7213.77 1424H7214.77C7214.77 1275.18 7256.22 1142.93 7339.77 1047.91C7423.3 952.906 7549.01 895 7717.77 895V894V893C7548.52 893 7422.23 951.093 7338.26 1046.59C7254.31 1142.07 7212.77 1274.82 7212.77 1424H7213.77ZM7717.77 894V895C7885.52 895 8010.73 953.403 8094.01 1048.66C8177.32 1143.93 8218.77 1276.18 8218.77 1424H8219.77H8220.77C8220.77 1275.82 8179.22 1143.07 8095.52 1047.34C8011.8 951.597 7886.01 893 7717.77 893V894ZM8219.77 1424H8218.77C8218.77 1573.83 8177.31 1707.07 8094.01 1802.84C8010.73 1898.6 7885.52 1957 7717.77 1957V1958V1959C7886.02 1959 8011.81 1900.4 8095.52 1804.16C8179.22 1707.93 8220.77 1574.17 8220.77 1424H8219.77ZM7375.77 1426H7374.77C7374.77 1566.11 7403.78 1666.9 7461.26 1732.66C7518.77 1798.45 7604.59 1829 7717.77 1829V1828V1827C7604.94 1827 7519.77 1796.55 7462.77 1731.34C7405.75 1666.1 7376.77 1565.89 7376.77 1426H7375.77ZM7717.77 1828V1829C7830.94 1829 7916.27 1798.45 7973.27 1732.65C8030.25 1666.89 8058.77 1566.11 8058.77 1426H8057.77H8056.77C8056.77 1565.89 8028.28 1666.11 7971.76 1731.35C7915.26 1796.55 7830.59 1827 7717.77 1827V1828ZM8057.77 1426H8058.77C8058.77 1284.89 8030.25 1184.11 7973.27 1118.59C7916.26 1053.05 7830.94 1023 7717.77 1023V1024V1025C7830.59 1025 7915.27 1054.95 7971.76 1119.91C8028.28 1184.89 8056.77 1285.11 8056.77 1426H8057.77ZM7717.77 1024V1023C7604.59 1023 7518.77 1053.05 7461.26 1118.59C7403.78 1184.1 7374.77 1284.89 7374.77 1426H7375.77H7376.77C7376.77 1285.11 7405.75 1184.9 7462.77 1119.91C7519.76 1054.95 7604.94 1025 7717.77 1025V1024Z" fill="white" mask="url(#path-1-outside-1_2636_285)"/>
<path d="M930.475 2093.85C1071.34 2092.94 1167.33 2047.65 1214.11 1999.08C1260.89 1950.52 1319.51 1685.76 1375.76 1554.28C1432.01 1422.79 1704.4 1200.68 1744.07 1091.7C1783.74 982.72 1837.04 659.919 1758.87 489.34C1680.71 318.761 1321.88 70 929.884 70C537.89 70 221.096 306.324 119.842 475.126C18.5873 643.927 97.681 1027.14 129.909 1104.73C162.137 1182.32 447.294 1446.48 494.072 1554.28C540.851 1662.07 596.512 1935.12 656.317 1999.08C716.122 2063.05 796.411 2091.71 930.475 2093.85ZM930.475 2093.85V2273.91M930.475 2273.91L754.611 2451M930.475 2273.91L1118.77 2451M1497.74 822.206L1267.99 1053.2M370.315 825.76L602.432 1054.98M823.299 1762.17V1932.75M1040.02 1762.17V1932.75" stroke="white" stroke-width="140"/>
</svg>
